<?xml version="1.0" encoding="utf-8" standalone="no"?>
<!DOCTYPE svg PUBLIC "-//W3C//DTD SVG 1.1//EN"
  "http://www.w3.org/Graphics/SVG/1.1/DTD/svg11.dtd">
<svg xmlns:xlink="http://www.w3.org/1999/xlink" width="864pt" height="360pt" viewBox="0 0 864 360" xmlns="http://www.w3.org/2000/svg" version="1.1">
 <metadata>
  <rdf:RDF xmlns:dc="http://purl.org/dc/elements/1.1/" xmlns:cc="http://creativecommons.org/ns#" xmlns:rdf="http://www.w3.org/1999/02/22-rdf-syntax-ns#">
   <cc:Work>
    <dc:type rdf:resource="http://purl.org/dc/dcmitype/StillImage"/>
    <dc:date>2024-04-08T08:11:30.960810</dc:date>
    <dc:format>image/svg+xml</dc:format>
    <dc:creator>
     <cc:Agent>
      <dc:title>Matplotlib v3.8.4, https://matplotlib.org/</dc:title>
     </cc:Agent>
    </dc:creator>
   </cc:Work>
  </rdf:RDF>
 </metadata>
 <defs>
  <style type="text/css">*{stroke-linejoin: round; stroke-linecap: butt}</style>
 </defs>
 <g id="figure_1">
  <g id="patch_1">
   <path d="M 0 360 
L 864 360 
L 864 0 
L 0 0 
L 0 360 
z
" style="fill: none; opacity: 0"/>
  </g>
  <g id="axes_1">
   <g id="patch_2">
    <path d="M 108 320.4 
L 777.6 320.4 
L 777.6 43.2 
L 108 43.2 
L 108 320.4 
z
" style="fill: none; opacity: 0"/>
   </g>
   <g id="matplotlib.axis_1">
    <g id="xtick_1">
     <g id="line2d_1">
      <path d="M 162.440776 320.4 
L 162.440776 43.2 
" clip-path="url(#pb4f0b73cb0)" style="fill: none; stroke-dasharray: 5.12,1.28,0.8,1.28; stroke-dashoffset: 0; stroke: #b0b0b0; stroke-width: 0.8"/>
     </g>
     <g id="line2d_2">
      <defs>
       <path id="me1688610e0" d="M 0 0 
L 0 3.5 
" style="stroke: #a9a9a9; stroke-width: 0.8"/>
      </defs>
      <g>
       <use xlink:href="#me1688610e0" x="162.440776" y="320.4" style="fill: #a9a9a9; stroke: #a9a9a9; stroke-width: 0.8"/>
      </g>
     </g>
     <g id="text_1">
      <!-- 2021-09 -->
      <g style="fill: #a9a9a9" transform="translate(141.54937 334.998438) scale(0.1 -0.1)">
       <defs>
        <path id="DejaVuSans-32" d="M 1228 531 
L 3431 531 
L 3431 0 
L 469 0 
L 469 531 
Q 828 903 1448 1529 
Q 2069 2156 2228 2338 
Q 2531 2678 2651 2914 
Q 2772 3150 2772 3378 
Q 2772 3750 2511 3984 
Q 2250 4219 1831 4219 
Q 1534 4219 1204 4116 
Q 875 4013 500 3803 
L 500 4441 
Q 881 4594 1212 4672 
Q 1544 4750 1819 4750 
Q 2544 4750 2975 4387 
Q 3406 4025 3406 3419 
Q 3406 3131 3298 2873 
Q 3191 2616 2906 2266 
Q 2828 2175 2409 1742 
Q 1991 1309 1228 531 
z
" transform="scale(0.015625)"/>
        <path id="DejaVuSans-30" d="M 2034 4250 
Q 1547 4250 1301 3770 
Q 1056 3291 1056 2328 
Q 1056 1369 1301 889 
Q 1547 409 2034 409 
Q 2525 409 2770 889 
Q 3016 1369 3016 2328 
Q 3016 3291 2770 3770 
Q 2525 4250 2034 4250 
z
M 2034 4750 
Q 2819 4750 3233 4129 
Q 3647 3509 3647 2328 
Q 3647 1150 3233 529 
Q 2819 -91 2034 -91 
Q 1250 -91 836 529 
Q 422 1150 422 2328 
Q 422 3509 836 4129 
Q 1250 4750 2034 4750 
z
" transform="scale(0.015625)"/>
        <path id="DejaVuSans-31" d="M 794 531 
L 1825 531 
L 1825 4091 
L 703 3866 
L 703 4441 
L 1819 4666 
L 2450 4666 
L 2450 531 
L 3481 531 
L 3481 0 
L 794 0 
L 794 531 
z
" transform="scale(0.015625)"/>
        <path id="DejaVuSans-2d" d="M 313 2009 
L 1997 2009 
L 1997 1497 
L 313 1497 
L 313 2009 
z
" transform="scale(0.015625)"/>
        <path id="DejaVuSans-39" d="M 703 97 
L 703 672 
Q 941 559 1184 500 
Q 1428 441 1663 441 
Q 2288 441 2617 861 
Q 2947 1281 2994 2138 
Q 2813 1869 2534 1725 
Q 2256 1581 1919 1581 
Q 1219 1581 811 2004 
Q 403 2428 403 3163 
Q 403 3881 828 4315 
Q 1253 4750 1959 4750 
Q 2769 4750 3195 4129 
Q 3622 3509 3622 2328 
Q 3622 1225 3098 567 
Q 2575 -91 1691 -91 
Q 1453 -91 1209 -44 
Q 966 3 703 97 
z
M 1959 2075 
Q 2384 2075 2632 2365 
Q 2881 2656 2881 3163 
Q 2881 3666 2632 3958 
Q 2384 4250 1959 4250 
Q 1534 4250 1286 3958 
Q 1038 3666 1038 3163 
Q 1038 2656 1286 2365 
Q 1534 2075 1959 2075 
z
" transform="scale(0.015625)"/>
       </defs>
       <use xlink:href="#DejaVuSans-32"/>
       <use xlink:href="#DejaVuSans-30" x="63.623047"/>
       <use xlink:href="#DejaVuSans-32" x="127.246094"/>
       <use xlink:href="#DejaVuSans-31" x="190.869141"/>
       <use xlink:href="#DejaVuSans-2d" x="254.492188"/>
       <use xlink:href="#DejaVuSans-30" x="290.576172"/>
       <use xlink:href="#DejaVuSans-39" x="354.199219"/>
      </g>
     </g>
    </g>
    <g id="xtick_2">
     <g id="line2d_3">
      <path d="M 237.531501 320.4 
L 237.531501 43.2 
" clip-path="url(#pb4f0b73cb0)" style="fill: none; stroke-dasharray: 5.12,1.28,0.8,1.28; stroke-dashoffset: 0; stroke: #b0b0b0; stroke-width: 0.8"/>
     </g>
     <g id="line2d_4">
      <g>
       <use xlink:href="#me1688610e0" x="237.531501" y="320.4" style="fill: #a9a9a9; stroke: #a9a9a9; stroke-width: 0.8"/>
      </g>
     </g>
     <g id="text_2">
      <!-- 2022-01 -->
      <g style="fill: #a9a9a9" transform="translate(216.640095 334.998438) scale(0.1 -0.1)">
       <use xlink:href="#DejaVuSans-32"/>
       <use xlink:href="#DejaVuSans-30" x="63.623047"/>
       <use xlink:href="#DejaVuSans-32" x="127.246094"/>
       <use xlink:href="#DejaVuSans-32" x="190.869141"/>
       <use xlink:href="#DejaVuSans-2d" x="254.492188"/>
       <use xlink:href="#DejaVuSans-30" x="290.576172"/>
       <use xlink:href="#DejaVuSans-31" x="354.199219"/>
      </g>
     </g>
    </g>
    <g id="xtick_3">
     <g id="line2d_5">
      <path d="M 311.391231 320.4 
L 311.391231 43.2 
" clip-path="url(#pb4f0b73cb0)" style="fill: none; stroke-dasharray: 5.12,1.28,0.8,1.28; stroke-dashoffset: 0; stroke: #b0b0b0; stroke-width: 0.8"/>
     </g>
     <g id="line2d_6">
      <g>
       <use xlink:href="#me1688610e0" x="311.391231" y="320.4" style="fill: #a9a9a9; stroke: #a9a9a9; stroke-width: 0.8"/>
      </g>
     </g>
     <g id="text_3">
      <!-- 2022-05 -->
      <g style="fill: #a9a9a9" transform="translate(290.499825 334.998438) scale(0.1 -0.1)">
       <defs>
        <path id="DejaVuSans-35" d="M 691 4666 
L 3169 4666 
L 3169 4134 
L 1269 4134 
L 1269 2991 
Q 1406 3038 1543 3061 
Q 1681 3084 1819 3084 
Q 2600 3084 3056 2656 
Q 3513 2228 3513 1497 
Q 3513 744 3044 326 
Q 2575 -91 1722 -91 
Q 1428 -91 1123 -41 
Q 819 9 494 109 
L 494 744 
Q 775 591 1075 516 
Q 1375 441 1709 441 
Q 2250 441 2565 725 
Q 2881 1009 2881 1497 
Q 2881 1984 2565 2268 
Q 2250 2553 1709 2553 
Q 1456 2553 1204 2497 
Q 953 2441 691 2322 
L 691 4666 
z
" transform="scale(0.015625)"/>
       </defs>
       <use xlink:href="#DejaVuSans-32"/>
       <use xlink:href="#DejaVuSans-30" x="63.623047"/>
       <use xlink:href="#DejaVuSans-32" x="127.246094"/>
       <use xlink:href="#DejaVuSans-32" x="190.869141"/>
       <use xlink:href="#DejaVuSans-2d" x="254.492188"/>
       <use xlink:href="#DejaVuSans-30" x="290.576172"/>
       <use xlink:href="#DejaVuSans-35" x="354.199219"/>
      </g>
     </g>
    </g>
    <g id="xtick_4">
     <g id="line2d_7">
      <path d="M 387.097454 320.4 
L 387.097454 43.2 
" clip-path="url(#pb4f0b73cb0)" style="fill: none; stroke-dasharray: 5.12,1.28,0.8,1.28; stroke-dashoffset: 0; stroke: #b0b0b0; stroke-width: 0.8"/>
     </g>
     <g id="line2d_8">
      <g>
       <use xlink:href="#me1688610e0" x="387.097454" y="320.4" style="fill: #a9a9a9; stroke: #a9a9a9; stroke-width: 0.8"/>
      </g>
     </g>
     <g id="text_4">
      <!-- 2022-09 -->
      <g style="fill: #a9a9a9" transform="translate(366.206048 334.998438) scale(0.1 -0.1)">
       <use xlink:href="#DejaVuSans-32"/>
       <use xlink:href="#DejaVuSans-30" x="63.623047"/>
       <use xlink:href="#DejaVuSans-32" x="127.246094"/>
       <use xlink:href="#DejaVuSans-32" x="190.869141"/>
       <use xlink:href="#DejaVuSans-2d" x="254.492188"/>
       <use xlink:href="#DejaVuSans-30" x="290.576172"/>
       <use xlink:href="#DejaVuSans-39" x="354.199219"/>
      </g>
     </g>
    </g>
    <g id="xtick_5">
     <g id="line2d_9">
      <path d="M 462.188179 320.4 
L 462.188179 43.2 
" clip-path="url(#pb4f0b73cb0)" style="fill: none; stroke-dasharray: 5.12,1.28,0.8,1.28; stroke-dashoffset: 0; stroke: #b0b0b0; stroke-width: 0.8"/>
     </g>
     <g id="line2d_10">
      <g>
       <use xlink:href="#me1688610e0" x="462.188179" y="320.4" style="fill: #a9a9a9; stroke: #a9a9a9; stroke-width: 0.8"/>
      </g>
     </g>
     <g id="text_5">
      <!-- 2023-01 -->
      <g style="fill: #a9a9a9" transform="translate(441.296773 334.998438) scale(0.1 -0.1)">
       <defs>
        <path id="DejaVuSans-33" d="M 2597 2516 
Q 3050 2419 3304 2112 
Q 3559 1806 3559 1356 
Q 3559 666 3084 287 
Q 2609 -91 1734 -91 
Q 1441 -91 1130 -33 
Q 819 25 488 141 
L 488 750 
Q 750 597 1062 519 
Q 1375 441 1716 441 
Q 2309 441 2620 675 
Q 2931 909 2931 1356 
Q 2931 1769 2642 2001 
Q 2353 2234 1838 2234 
L 1294 2234 
L 1294 2753 
L 1863 2753 
Q 2328 2753 2575 2939 
Q 2822 3125 2822 3475 
Q 2822 3834 2567 4026 
Q 2313 4219 1838 4219 
Q 1578 4219 1281 4162 
Q 984 4106 628 3988 
L 628 4550 
Q 988 4650 1302 4700 
Q 1616 4750 1894 4750 
Q 2613 4750 3031 4423 
Q 3450 4097 3450 3541 
Q 3450 3153 3228 2886 
Q 3006 2619 2597 2516 
z
" transform="scale(0.015625)"/>
       </defs>
       <use xlink:href="#DejaVuSans-32"/>
       <use xlink:href="#DejaVuSans-30" x="63.623047"/>
       <use xlink:href="#DejaVuSans-32" x="127.246094"/>
       <use xlink:href="#DejaVuSans-33" x="190.869141"/>
       <use xlink:href="#DejaVuSans-2d" x="254.492188"/>
       <use xlink:href="#DejaVuSans-30" x="290.576172"/>
       <use xlink:href="#DejaVuSans-31" x="354.199219"/>
      </g>
     </g>
    </g>
    <g id="xtick_6">
     <g id="line2d_11">
      <path d="M 536.047909 320.4 
L 536.047909 43.2 
" clip-path="url(#pb4f0b73cb0)" style="fill: none; stroke-dasharray: 5.12,1.28,0.8,1.28; stroke-dashoffset: 0; stroke: #b0b0b0; stroke-width: 0.8"/>
     </g>
     <g id="line2d_12">
      <g>
       <use xlink:href="#me1688610e0" x="536.047909" y="320.4" style="fill: #a9a9a9; stroke: #a9a9a9; stroke-width: 0.8"/>
      </g>
     </g>
     <g id="text_6">
      <!-- 2023-05 -->
      <g style="fill: #a9a9a9" transform="translate(515.156503 334.998438) scale(0.1 -0.1)">
       <use xlink:href="#DejaVuSans-32"/>
       <use xlink:href="#DejaVuSans-30" x="63.623047"/>
       <use xlink:href="#DejaVuSans-32" x="127.246094"/>
       <use xlink:href="#DejaVuSans-33" x="190.869141"/>
       <use xlink:href="#DejaVuSans-2d" x="254.492188"/>
       <use xlink:href="#DejaVuSans-30" x="290.576172"/>
       <use xlink:href="#DejaVuSans-35" x="354.199219"/>
      </g>
     </g>
    </g>
    <g id="xtick_7">
     <g id="line2d_13">
      <path d="M 611.754132 320.4 
L 611.754132 43.2 
" clip-path="url(#pb4f0b73cb0)" style="fill: none; stroke-dasharray: 5.12,1.28,0.8,1.28; stroke-dashoffset: 0; stroke: #b0b0b0; stroke-width: 0.8"/>
     </g>
     <g id="line2d_14">
      <g>
       <use xlink:href="#me1688610e0" x="611.754132" y="320.4" style="fill: #a9a9a9; stroke: #a9a9a9; stroke-width: 0.8"/>
      </g>
     </g>
     <g id="text_7">
      <!-- 2023-09 -->
      <g style="fill: #a9a9a9" transform="translate(590.862726 334.998438) scale(0.1 -0.1)">
       <use xlink:href="#DejaVuSans-32"/>
       <use xlink:href="#DejaVuSans-30" x="63.623047"/>
       <use xlink:href="#DejaVuSans-32" x="127.246094"/>
       <use xlink:href="#DejaVuSans-33" x="190.869141"/>
       <use xlink:href="#DejaVuSans-2d" x="254.492188"/>
       <use xlink:href="#DejaVuSans-30" x="290.576172"/>
       <use xlink:href="#DejaVuSans-39" x="354.199219"/>
      </g>
     </g>
    </g>
    <g id="xtick_8">
     <g id="line2d_15">
      <path d="M 686.844857 320.4 
L 686.844857 43.2 
" clip-path="url(#pb4f0b73cb0)" style="fill: none; stroke-dasharray: 5.12,1.28,0.8,1.28; stroke-dashoffset: 0; stroke: #b0b0b0; stroke-width: 0.8"/>
     </g>
     <g id="line2d_16">
      <g>
       <use xlink:href="#me1688610e0" x="686.844857" y="320.4" style="fill: #a9a9a9; stroke: #a9a9a9; stroke-width: 0.8"/>
      </g>
     </g>
     <g id="text_8">
      <!-- 2024-01 -->
      <g style="fill: #a9a9a9" transform="translate(665.953451 334.998438) scale(0.1 -0.1)">
       <defs>
        <path id="DejaVuSans-34" d="M 2419 4116 
L 825 1625 
L 2419 1625 
L 2419 4116 
z
M 2253 4666 
L 3047 4666 
L 3047 1625 
L 3713 1625 
L 3713 1100 
L 3047 1100 
L 3047 0 
L 2419 0 
L 2419 1100 
L 313 1100 
L 313 1709 
L 2253 4666 
z
" transform="scale(0.015625)"/>
       </defs>
       <use xlink:href="#DejaVuSans-32"/>
       <use xlink:href="#DejaVuSans-30" x="63.623047"/>
       <use xlink:href="#DejaVuSans-32" x="127.246094"/>
       <use xlink:href="#DejaVuSans-34" x="190.869141"/>
       <use xlink:href="#DejaVuSans-2d" x="254.492188"/>
       <use xlink:href="#DejaVuSans-30" x="290.576172"/>
       <use xlink:href="#DejaVuSans-31" x="354.199219"/>
      </g>
     </g>
    </g>
    <g id="xtick_9">
     <g id="line2d_17">
      <path d="M 761.320085 320.4 
L 761.320085 43.2 
" clip-path="url(#pb4f0b73cb0)" style="fill: none; stroke-dasharray: 5.12,1.28,0.8,1.28; stroke-dashoffset: 0; stroke: #b0b0b0; stroke-width: 0.8"/>
     </g>
     <g id="line2d_18">
      <g>
       <use xlink:href="#me1688610e0" x="761.320085" y="320.4" style="fill: #a9a9a9; stroke: #a9a9a9; stroke-width: 0.8"/>
      </g>
     </g>
     <g id="text_9">
      <!-- 2024-05 -->
      <g style="fill: #a9a9a9" transform="translate(740.428678 334.998438) scale(0.1 -0.1)">
       <use xlink:href="#DejaVuSans-32"/>
       <use xlink:href="#DejaVuSans-30" x="63.623047"/>
       <use xlink:href="#DejaVuSans-32" x="127.246094"/>
       <use xlink:href="#DejaVuSans-34" x="190.869141"/>
       <use xlink:href="#DejaVuSans-2d" x="254.492188"/>
       <use xlink:href="#DejaVuSans-30" x="290.576172"/>
       <use xlink:href="#DejaVuSans-35" x="354.199219"/>
      </g>
     </g>
    </g>
   </g>
   <g id="matplotlib.axis_2">
    <g id="ytick_1">
     <g id="line2d_19">
      <path d="M 108 307.842864 
L 777.6 307.842864 
" clip-path="url(#pb4f0b73cb0)" style="fill: none; stroke-dasharray: 5.12,1.28,0.8,1.28; stroke-dashoffset: 0; stroke: #b0b0b0; stroke-width: 0.8"/>
     </g>
     <g id="line2d_20">
      <defs>
       <path id="m1c04c7d907" d="M 0 0 
L -3.5 0 
" style="stroke: #a9a9a9; stroke-width: 0.8"/>
      </defs>
      <g>
       <use xlink:href="#m1c04c7d907" x="108" y="307.842864" style="fill: #a9a9a9; stroke: #a9a9a9; stroke-width: 0.8"/>
      </g>
     </g>
     <g id="text_10">
      <!-- 0 -->
      <g style="fill: #a9a9a9" transform="translate(94.6375 311.642083) scale(0.1 -0.1)">
       <use xlink:href="#DejaVuSans-30"/>
      </g>
     </g>
    </g>
    <g id="ytick_2">
     <g id="line2d_21">
      <path d="M 108 273.551318 
L 777.6 273.551318 
" clip-path="url(#pb4f0b73cb0)" style="fill: none; stroke-dasharray: 5.12,1.28,0.8,1.28; stroke-dashoffset: 0; stroke: #b0b0b0; stroke-width: 0.8"/>
     </g>
     <g id="line2d_22">
      <g>
       <use xlink:href="#m1c04c7d907" x="108" y="273.551318" style="fill: #a9a9a9; stroke: #a9a9a9; stroke-width: 0.8"/>
      </g>
     </g>
     <g id="text_11">
      <!-- 800 -->
      <g style="fill: #a9a9a9" transform="translate(81.9125 277.350537) scale(0.1 -0.1)">
       <defs>
        <path id="DejaVuSans-38" d="M 2034 2216 
Q 1584 2216 1326 1975 
Q 1069 1734 1069 1313 
Q 1069 891 1326 650 
Q 1584 409 2034 409 
Q 2484 409 2743 651 
Q 3003 894 3003 1313 
Q 3003 1734 2745 1975 
Q 2488 2216 2034 2216 
z
M 1403 2484 
Q 997 2584 770 2862 
Q 544 3141 544 3541 
Q 544 4100 942 4425 
Q 1341 4750 2034 4750 
Q 2731 4750 3128 4425 
Q 3525 4100 3525 3541 
Q 3525 3141 3298 2862 
Q 3072 2584 2669 2484 
Q 3125 2378 3379 2068 
Q 3634 1759 3634 1313 
Q 3634 634 3220 271 
Q 2806 -91 2034 -91 
Q 1263 -91 848 271 
Q 434 634 434 1313 
Q 434 1759 690 2068 
Q 947 2378 1403 2484 
z
M 1172 3481 
Q 1172 3119 1398 2916 
Q 1625 2713 2034 2713 
Q 2441 2713 2670 2916 
Q 2900 3119 2900 3481 
Q 2900 3844 2670 4047 
Q 2441 4250 2034 4250 
Q 1625 4250 1398 4047 
Q 1172 3844 1172 3481 
z
" transform="scale(0.015625)"/>
       </defs>
       <use xlink:href="#DejaVuSans-38"/>
       <use xlink:href="#DejaVuSans-30" x="63.623047"/>
       <use xlink:href="#DejaVuSans-30" x="127.246094"/>
      </g>
     </g>
    </g>
    <g id="ytick_3">
     <g id="line2d_23">
      <path d="M 108 239.259772 
L 777.6 239.259772 
" clip-path="url(#pb4f0b73cb0)" style="fill: none; stroke-dasharray: 5.12,1.28,0.8,1.28; stroke-dashoffset: 0; stroke: #b0b0b0; stroke-width: 0.8"/>
     </g>
     <g id="line2d_24">
      <g>
       <use xlink:href="#m1c04c7d907" x="108" y="239.259772" style="fill: #a9a9a9; stroke: #a9a9a9; stroke-width: 0.8"/>
      </g>
     </g>
     <g id="text_12">
      <!-- 1600 -->
      <g style="fill: #a9a9a9" transform="translate(75.55 243.058991) scale(0.1 -0.1)">
       <defs>
        <path id="DejaVuSans-36" d="M 2113 2584 
Q 1688 2584 1439 2293 
Q 1191 2003 1191 1497 
Q 1191 994 1439 701 
Q 1688 409 2113 409 
Q 2538 409 2786 701 
Q 3034 994 3034 1497 
Q 3034 2003 2786 2293 
Q 2538 2584 2113 2584 
z
M 3366 4563 
L 3366 3988 
Q 3128 4100 2886 4159 
Q 2644 4219 2406 4219 
Q 1781 4219 1451 3797 
Q 1122 3375 1075 2522 
Q 1259 2794 1537 2939 
Q 1816 3084 2150 3084 
Q 2853 3084 3261 2657 
Q 3669 2231 3669 1497 
Q 3669 778 3244 343 
Q 2819 -91 2113 -91 
Q 1303 -91 875 529 
Q 447 1150 447 2328 
Q 447 3434 972 4092 
Q 1497 4750 2381 4750 
Q 2619 4750 2861 4703 
Q 3103 4656 3366 4563 
z
" transform="scale(0.015625)"/>
       </defs>
       <use xlink:href="#DejaVuSans-31"/>
       <use xlink:href="#DejaVuSans-36" x="63.623047"/>
       <use xlink:href="#DejaVuSans-30" x="127.246094"/>
       <use xlink:href="#DejaVuSans-30" x="190.869141"/>
      </g>
     </g>
    </g>
    <g id="ytick_4">
     <g id="line2d_25">
      <path d="M 108 204.968226 
L 777.6 204.968226 
" clip-path="url(#pb4f0b73cb0)" style="fill: none; stroke-dasharray: 5.12,1.28,0.8,1.28; stroke-dashoffset: 0; stroke: #b0b0b0; stroke-width: 0.8"/>
     </g>
     <g id="line2d_26">
      <g>
       <use xlink:href="#m1c04c7d907" x="108" y="204.968226" style="fill: #a9a9a9; stroke: #a9a9a9; stroke-width: 0.8"/>
      </g>
     </g>
     <g id="text_13">
      <!-- 2400 -->
      <g style="fill: #a9a9a9" transform="translate(75.55 208.767445) scale(0.1 -0.1)">
       <use xlink:href="#DejaVuSans-32"/>
       <use xlink:href="#DejaVuSans-34" x="63.623047"/>
       <use xlink:href="#DejaVuSans-30" x="127.246094"/>
       <use xlink:href="#DejaVuSans-30" x="190.869141"/>
      </g>
     </g>
    </g>
    <g id="ytick_5">
     <g id="line2d_27">
      <path d="M 108 170.67668 
L 777.6 170.67668 
" clip-path="url(#pb4f0b73cb0)" style="fill: none; stroke-dasharray: 5.12,1.28,0.8,1.28; stroke-dashoffset: 0; stroke: #b0b0b0; stroke-width: 0.8"/>
     </g>
     <g id="line2d_28">
      <g>
       <use xlink:href="#m1c04c7d907" x="108" y="170.67668" style="fill: #a9a9a9; stroke: #a9a9a9; stroke-width: 0.8"/>
      </g>
     </g>
     <g id="text_14">
      <!-- 3200 -->
      <g style="fill: #a9a9a9" transform="translate(75.55 174.475898) scale(0.1 -0.1)">
       <use xlink:href="#DejaVuSans-33"/>
       <use xlink:href="#DejaVuSans-32" x="63.623047"/>
       <use xlink:href="#DejaVuSans-30" x="127.246094"/>
       <use xlink:href="#DejaVuSans-30" x="190.869141"/>
      </g>
     </g>
    </g>
    <g id="ytick_6">
     <g id="line2d_29">
      <path d="M 108 136.385134 
L 777.6 136.385134 
" clip-path="url(#pb4f0b73cb0)" style="fill: none; stroke-dasharray: 5.12,1.28,0.8,1.28; stroke-dashoffset: 0; stroke: #b0b0b0; stroke-width: 0.8"/>
     </g>
     <g id="line2d_30">
      <g>
       <use xlink:href="#m1c04c7d907" x="108" y="136.385134" style="fill: #a9a9a9; stroke: #a9a9a9; stroke-width: 0.8"/>
      </g>
     </g>
     <g id="text_15">
      <!-- 4000 -->
      <g style="fill: #a9a9a9" transform="translate(75.55 140.184352) scale(0.1 -0.1)">
       <use xlink:href="#DejaVuSans-34"/>
       <use xlink:href="#DejaVuSans-30" x="63.623047"/>
       <use xlink:href="#DejaVuSans-30" x="127.246094"/>
       <use xlink:href="#DejaVuSans-30" x="190.869141"/>
      </g>
     </g>
    </g>
    <g id="ytick_7">
     <g id="line2d_31">
      <path d="M 108 102.093587 
L 777.6 102.093587 
" clip-path="url(#pb4f0b73cb0)" style="fill: none; stroke-dasharray: 5.12,1.28,0.8,1.28; stroke-dashoffset: 0; stroke: #b0b0b0; stroke-width: 0.8"/>
     </g>
     <g id="line2d_32">
      <g>
       <use xlink:href="#m1c04c7d907" x="108" y="102.093587" style="fill: #a9a9a9; stroke: #a9a9a9; stroke-width: 0.8"/>
      </g>
     </g>
     <g id="text_16">
      <!-- 4800 -->
      <g style="fill: #a9a9a9" transform="translate(75.55 105.892806) scale(0.1 -0.1)">
       <use xlink:href="#DejaVuSans-34"/>
       <use xlink:href="#DejaVuSans-38" x="63.623047"/>
       <use xlink:href="#DejaVuSans-30" x="127.246094"/>
       <use xlink:href="#DejaVuSans-30" x="190.869141"/>
      </g>
     </g>
    </g>
    <g id="ytick_8">
     <g id="line2d_33">
      <path d="M 108 67.802041 
L 777.6 67.802041 
" clip-path="url(#pb4f0b73cb0)" style="fill: none; stroke-dasharray: 5.12,1.28,0.8,1.28; stroke-dashoffset: 0; stroke: #b0b0b0; stroke-width: 0.8"/>
     </g>
     <g id="line2d_34">
      <g>
       <use xlink:href="#m1c04c7d907" x="108" y="67.802041" style="fill: #a9a9a9; stroke: #a9a9a9; stroke-width: 0.8"/>
      </g>
     </g>
     <g id="text_17">
      <!-- 5600 -->
      <g style="fill: #a9a9a9" transform="translate(75.55 71.60126) scale(0.1 -0.1)">
       <use xlink:href="#DejaVuSans-35"/>
       <use xlink:href="#DejaVuSans-36" x="63.623047"/>
       <use xlink:href="#DejaVuSans-30" x="127.246094"/>
       <use xlink:href="#DejaVuSans-30" x="190.869141"/>
      </g>
     </g>
    </g>
   </g>
   <g id="line2d_35">
    <path d="M 138.436364 307.714271 
L 142.12935 307.41422 
L 142.744848 307.157034 
L 144.591341 306.942711 
L 148.284328 306.214016 
L 151.977314 305.913965 
L 152.592812 305.613914 
L 153.20831 305.442456 
L 153.823807 304.670896 
L 154.439305 304.242252 
L 155.054803 302.913455 
L 155.670301 302.827726 
L 156.285798 302.356217 
L 157.516794 301.756115 
L 159.978785 299.87008 
L 161.20978 299.355707 
L 161.825278 298.927062 
L 164.287269 297.855452 
L 164.902767 296.912434 
L 166.133762 296.055145 
L 166.74926 295.755094 
L 172.904238 294.897806 
L 173.519735 294.597755 
L 177.82822 294.254839 
L 179.674713 293.78333 
L 185.214192 293.054635 
L 185.82969 292.71172 
L 186.445188 292.625991 
L 187.060686 292.368804 
L 188.291681 292.154482 
L 188.907179 292.111618 
L 190.138174 291.854431 
L 190.753672 291.811567 
L 193.215663 291.211465 
L 195.062156 291.040007 
L 196.293152 290.911414 
L 196.90865 290.739956 
L 197.524147 290.697091 
L 199.370641 290.139854 
L 203.063627 289.582616 
L 203.679125 289.411158 
L 204.294623 288.596734 
L 206.141116 287.910903 
L 207.987609 287.39653 
L 208.603107 287.096479 
L 209.218605 287.053615 
L 212.296093 286.196326 
L 213.527089 286.110597 
L 214.758084 285.85341 
L 217.220075 285.253308 
L 217.835573 285.210444 
L 219.066569 284.653206 
L 219.682066 284.567477 
L 220.297564 284.267426 
L 226.452542 283.367273 
L 229.53003 282.509985 
L 230.145528 282.124205 
L 232.607519 281.481238 
L 233.838515 280.752543 
L 234.454012 280.323899 
L 236.300506 279.980983 
L 239.993492 278.866508 
L 241.224488 278.480728 
L 241.839985 278.394999 
L 243.070981 278.052084 
L 244.301976 277.752033 
L 244.917474 277.666304 
L 246.14847 277.151931 
L 246.763967 277.023337 
L 247.379465 276.766151 
L 247.994963 276.680422 
L 248.610461 276.380371 
L 249.225958 276.208913 
L 250.456954 276.123184 
L 251.687949 275.69454 
L 252.918945 275.608811 
L 253.534443 275.30876 
L 254.765438 275.137302 
L 255.380936 274.92298 
L 256.611931 274.880116 
L 259.073922 274.580065 
L 260.304918 273.979963 
L 267.075393 271.108046 
L 267.690891 270.76513 
L 268.306388 270.122164 
L 269.537384 268.278993 
L 270.152882 268.107535 
L 270.768379 268.107535 
L 271.999375 267.207382 
L 272.614873 267.035924 
L 273.23037 266.735873 
L 273.845868 266.60728 
L 274.461366 266.050043 
L 275.076864 265.878585 
L 276.923357 264.978432 
L 278.154352 263.263854 
L 278.76985 262.878075 
L 279.385348 261.849328 
L 280.000846 261.206362 
L 280.616343 260.906311 
L 281.231841 260.734853 
L 283.693832 259.277462 
L 284.924828 258.29158 
L 285.540325 257.9058 
L 286.155823 257.005647 
L 286.771321 255.633985 
L 287.386819 254.733832 
L 288.002316 254.262324 
L 288.617814 254.005137 
L 291.079805 251.861915 
L 292.310801 250.876033 
L 292.926298 250.36166 
L 293.541796 249.547236 
L 294.772792 248.475625 
L 297.234783 246.889641 
L 297.85028 246.332403 
L 298.465778 246.20381 
L 299.081276 245.946624 
L 300.927769 244.917877 
L 302.158765 244.317775 
L 303.38976 243.160435 
L 304.005258 242.43174 
L 305.236253 241.574451 
L 305.851751 241.402994 
L 306.467249 241.102943 
L 307.698244 240.288518 
L 308.313742 239.945603 
L 308.92924 239.859874 
L 313.853222 236.902228 
L 314.46872 236.559313 
L 315.084217 236.344991 
L 316.930711 235.144787 
L 318.777204 234.587549 
L 319.392702 234.158905 
L 320.008199 234.030311 
L 321.239195 233.601667 
L 323.085688 232.872972 
L 324.932181 232.187141 
L 326.163177 231.972819 
L 327.394172 230.901208 
L 328.625168 230.301106 
L 329.856163 229.615275 
L 330.471661 229.272359 
L 331.702656 228.929444 
L 332.318154 228.543664 
L 332.933652 228.372206 
L 334.780145 227.214866 
L 337.857634 226.486171 
L 339.704127 225.41456 
L 340.319625 225.328831 
L 340.935123 225.114509 
L 342.166118 224.857323 
L 344.012611 223.485661 
L 345.859105 223.057016 
L 346.474602 222.842694 
L 347.0901 222.371186 
L 350.783087 221.170981 
L 351.398584 221.128117 
L 352.014082 220.956659 
L 353.245078 220.442286 
L 357.553562 218.942031 
L 358.784557 218.770573 
L 359.400055 218.599115 
L 360.015553 218.299064 
L 360.631051 218.170471 
L 362.477544 217.313183 
L 364.324037 216.413029 
L 364.939535 215.984385 
L 365.555033 215.812927 
L 367.401526 214.827045 
L 368.632521 214.526994 
L 369.863517 213.884028 
L 371.094512 213.541112 
L 371.71001 213.455384 
L 372.941006 212.726688 
L 373.556503 212.598095 
L 374.787499 212.083722 
L 375.402997 211.955128 
L 376.018494 211.612213 
L 378.480485 211.226433 
L 379.711481 210.626331 
L 380.326979 210.111958 
L 380.942476 209.040347 
L 382.78897 208.697432 
L 385.250961 207.411499 
L 385.866458 207.282905 
L 390.174943 205.225412 
L 391.405938 204.882497 
L 392.636934 204.62531 
L 393.867929 204.025208 
L 394.483427 203.768022 
L 395.098925 203.682293 
L 397.560916 202.610682 
L 399.407409 201.453342 
L 400.022907 201.367614 
L 400.638404 201.153291 
L 401.253902 201.110427 
L 404.331391 200.338867 
L 404.946889 199.867358 
L 406.177884 199.438714 
L 408.024377 198.838612 
L 408.639875 198.452832 
L 409.255373 198.281374 
L 409.87087 197.85273 
L 410.486368 197.595543 
L 411.717364 196.952577 
L 414.179355 196.181017 
L 414.794852 195.880966 
L 416.641346 194.46644 
L 417.256843 194.337847 
L 418.487839 193.394829 
L 419.103337 193.266236 
L 419.718834 192.323218 
L 420.334332 192.066032 
L 420.94983 191.594523 
L 421.565328 191.508794 
L 422.796323 190.780099 
L 423.411821 190.651505 
L 424.027319 190.394319 
L 424.642816 189.92281 
L 425.258314 189.708488 
L 427.104807 188.465419 
L 429.566798 187.222351 
L 430.182296 187.136622 
L 431.413292 186.579384 
L 432.028789 186.236469 
L 432.644287 185.207722 
L 433.259785 184.650485 
L 433.875283 184.307569 
L 434.49078 184.178976 
L 435.721776 183.407416 
L 436.337274 183.278823 
L 437.568269 182.678721 
L 439.414762 181.907161 
L 440.645758 181.049872 
L 441.876753 179.763939 
L 444.954242 177.534989 
L 446.185238 176.506243 
L 446.800735 176.249056 
L 447.416233 175.563225 
L 448.031731 175.091716 
L 449.262726 174.663072 
L 450.493722 173.848648 
L 451.10922 173.548597 
L 451.724717 173.377139 
L 452.340215 172.948495 
L 452.955713 172.819901 
L 454.802206 171.834019 
L 456.033202 171.105324 
L 462.188179 168.919238 
L 462.803677 168.362 
L 464.65017 167.676169 
L 465.881166 167.29039 
L 466.496663 166.818881 
L 469.574152 165.232897 
L 470.805148 162.832489 
L 472.036143 161.375098 
L 473.267139 160.646402 
L 475.113632 159.917707 
L 475.72913 159.831978 
L 476.344627 159.489063 
L 478.191121 158.931825 
L 480.653111 157.81735 
L 481.268609 157.43157 
L 482.499605 157.002926 
L 486.192591 154.859704 
L 486.808089 154.216738 
L 488.039084 153.573771 
L 488.654582 153.230856 
L 489.27008 153.016533 
L 489.885578 152.587889 
L 491.116573 151.987787 
L 492.963066 151.001905 
L 493.578564 150.830447 
L 494.194062 150.358939 
L 494.80956 150.101752 
L 495.425057 149.973159 
L 496.656053 149.544514 
L 498.502546 148.858683 
L 499.118044 148.430039 
L 500.349039 148.087124 
L 501.580035 147.615615 
L 502.195533 147.144106 
L 503.426528 146.758326 
L 504.042026 146.458275 
L 504.657524 146.286817 
L 505.888519 145.429529 
L 507.119515 144.915156 
L 508.35051 143.972138 
L 509.581506 143.543494 
L 510.197003 143.029121 
L 510.812501 142.943392 
L 512.043497 142.043239 
L 513.274492 141.443137 
L 513.88999 141.18595 
L 514.505488 140.585848 
L 518.198474 139.257051 
L 520.044967 138.442626 
L 521.891461 137.885389 
L 523.122456 137.713931 
L 523.737954 137.456744 
L 524.353452 137.371015 
L 525.584447 136.856642 
L 526.199945 136.813778 
L 528.661936 135.913625 
L 530.508429 134.670556 
L 531.123927 134.41337 
L 532.354922 133.770403 
L 532.97042 133.556081 
L 535.432411 132.09869 
L 536.047909 131.71291 
L 537.278904 131.412859 
L 539.125398 130.384113 
L 540.971891 129.784011 
L 541.587389 129.526824 
L 542.818384 129.226773 
L 545.895873 128.240891 
L 547.742366 127.94084 
L 550.204357 127.16928 
L 550.819855 126.912094 
L 551.435353 126.826365 
L 552.05085 126.526314 
L 553.281846 126.269127 
L 554.512841 125.840483 
L 555.128339 125.626161 
L 556.359334 125.497568 
L 557.59033 125.197517 
L 559.436823 124.897466 
L 560.052321 124.683143 
L 561.283316 124.55455 
L 564.360805 123.78299 
L 565.591801 123.482939 
L 566.207298 123.140024 
L 569.284787 122.368464 
L 569.900285 122.239871 
L 571.13128 121.811226 
L 572.977774 121.16826 
L 573.593271 121.082531 
L 575.439765 120.439565 
L 576.055262 120.439565 
L 577.286258 120.01092 
L 577.901756 119.410818 
L 578.517253 119.110767 
L 579.748249 118.724987 
L 582.21024 117.78197 
L 582.825738 117.653376 
L 583.441235 117.267597 
L 584.056733 117.139003 
L 584.672231 116.796088 
L 587.74972 115.895935 
L 588.365217 115.510155 
L 588.980715 115.381561 
L 589.596213 114.867188 
L 591.442706 114.524273 
L 592.673702 113.838442 
L 593.289199 113.152611 
L 594.520195 112.895424 
L 598.828679 111.909542 
L 599.444177 111.738085 
L 600.675172 111.69522 
L 601.29067 111.395169 
L 603.752661 110.966525 
L 604.368159 110.666474 
L 606.214652 110.409287 
L 608.676643 109.637728 
L 610.523136 109.209083 
L 612.36963 108.737574 
L 614.216123 108.180337 
L 617.293612 107.280184 
L 617.909109 106.937268 
L 619.755603 106.294302 
L 620.3711 105.822793 
L 621.602096 105.479878 
L 622.217594 105.222691 
L 623.448589 104.879775 
L 625.91058 103.7653 
L 627.757073 103.636707 
L 630.219064 102.950876 
L 630.834562 102.565096 
L 632.065557 102.222181 
L 633.912051 101.279163 
L 634.527548 101.15057 
L 635.143046 100.850519 
L 635.758544 100.807654 
L 642.529019 98.535839 
L 644.99101 97.935737 
L 645.606508 97.76428 
L 646.837503 97.207042 
L 647.453001 97.121313 
L 648.683997 96.778398 
L 649.299494 96.306889 
L 649.914992 96.006838 
L 650.53049 95.278143 
L 651.145988 94.849498 
L 652.376983 94.463718 
L 652.992481 93.99221 
L 659.762956 91.206021 
L 660.993952 90.90597 
L 662.840445 90.048682 
L 664.07144 89.319986 
L 664.686938 89.191393 
L 665.302436 88.719884 
L 666.533431 88.119782 
L 667.764427 87.348222 
L 669.61092 86.490934 
L 670.226418 86.06229 
L 671.457413 85.633645 
L 672.688409 84.90495 
L 673.303907 84.647763 
L 673.919404 84.219119 
L 675.1504 83.790475 
L 675.765898 83.661881 
L 678.227889 82.547406 
L 681.305377 81.475795 
L 681.920875 81.432931 
L 682.536373 81.261473 
L 683.151871 80.875693 
L 683.767368 80.789964 
L 684.382866 80.575642 
L 686.229359 80.232727 
L 689.922346 78.346692 
L 690.537844 78.003776 
L 691.153341 77.918047 
L 692.999835 76.932165 
L 694.846328 76.246334 
L 696.692821 75.43191 
L 699.154812 74.446028 
L 699.77031 74.274571 
L 700.385808 73.888791 
L 701.616803 73.717333 
L 702.232301 73.331553 
L 702.847799 73.288689 
L 704.078794 72.902909 
L 705.30979 72.302807 
L 705.925287 72.217078 
L 706.540785 71.959891 
L 707.156283 71.831298 
L 709.002776 71.016874 
L 709.618274 70.88828 
L 710.233771 70.631094 
L 713.31126 69.902398 
L 715.157753 69.173703 
L 717.619744 67.759177 
L 718.85074 67.287668 
L 719.466238 66.901888 
L 720.697233 66.644701 
L 721.312731 66.301786 
L 721.928229 66.173193 
L 723.159224 65.487362 
L 726.852211 63.772784 
L 728.698704 63.172682 
L 729.929699 62.744038 
L 730.545197 62.529716 
L 731.776193 61.886749 
L 733.007188 61.50097 
L 733.622686 61.372376 
L 736.084677 60.215037 
L 736.700175 60.129308 
L 737.315672 59.914986 
L 739.162166 58.886239 
L 746.548139 55.842864 
L 747.163636 55.8 
L 747.163636 55.8 
" clip-path="url(#pb4f0b73cb0)" style="fill: none; stroke: #1f77b4; stroke-width: 1.5; stroke-linecap: square"/>
   </g>
   <g id="line2d_36">
    <path d="M 139.051861 307.8 
L 140.898355 307.714271 
L 142.744848 307.671407 
L 146.437834 307.585678 
L 149.515323 307.457085 
L 151.977314 307.457085 
L 152.592812 307.285627 
L 155.054803 307.199898 
L 156.901296 306.985576 
L 158.747789 306.814118 
L 162.440776 306.64266 
L 163.056274 306.64266 
L 163.671771 306.514067 
L 166.133762 306.428338 
L 167.364758 306.342609 
L 172.28874 306.25688 
L 175.366229 306.128287 
L 182.752201 306.042558 
L 185.82969 305.913965 
L 189.522677 305.828236 
L 191.984668 305.742507 
L 197.524147 305.656778 
L 199.370641 305.613914 
L 201.217134 305.571049 
L 203.063627 305.356727 
L 206.756614 305.313863 
L 207.987609 305.228134 
L 212.296093 305.142405 
L 219.066569 304.756625 
L 223.375053 304.670896 
L 224.606048 304.585168 
L 226.452542 304.499439 
L 230.145528 304.327981 
L 232.607519 304.285117 
L 234.454012 304.113659 
L 244.301976 303.513557 
L 246.763967 303.427828 
L 251.072452 303.213506 
L 252.918945 303.127777 
L 259.073922 302.784861 
L 265.844397 302.699133 
L 268.306388 302.441946 
L 269.537384 302.356217 
L 277.538855 301.713251 
L 281.231841 301.241742 
L 283.693832 301.156013 
L 288.617814 300.513046 
L 292.310801 300.427318 
L 294.157294 300.25586 
L 295.388289 300.212995 
L 296.619285 300.084402 
L 298.465778 299.998673 
L 299.696774 299.827216 
L 302.774262 299.4843 
L 305.236253 299.398571 
L 306.467249 299.312842 
L 308.92924 299.227113 
L 310.160235 299.141385 
L 313.237724 298.841334 
L 313.853222 298.669876 
L 317.546208 298.498418 
L 320.623697 298.412689 
L 328.625168 297.94118 
L 330.471661 297.855452 
L 338.473132 297.383943 
L 342.781616 297.298214 
L 343.397114 297.169621 
L 348.321096 297.083892 
L 352.62958 296.86957 
L 359.400055 296.783841 
L 363.708539 296.569519 
L 368.632521 296.48379 
L 373.556503 296.226603 
L 377.864988 296.140874 
L 389.559445 295.412179 
L 394.483427 295.32645 
L 410.486368 294.297704 
L 414.179355 294.211975 
L 416.025848 294.16911 
L 417.872341 294.126246 
L 419.718834 293.954788 
L 424.642816 293.869059 
L 425.873812 293.654737 
L 427.104807 293.569008 
L 430.182296 293.440415 
L 431.413292 293.354686 
L 432.644287 293.268957 
L 438.183767 293.183228 
L 439.414762 293.054635 
L 441.876753 293.011771 
L 442.492251 292.883177 
L 443.723247 292.797449 
L 444.338744 292.668855 
L 446.185238 292.583126 
L 456.648699 291.94016 
L 458.495193 291.854431 
L 461.572681 291.725838 
L 470.18965 291.640109 
L 474.498134 291.425787 
L 479.422116 291.340058 
L 481.884107 291.254329 
L 484.346098 291.211465 
L 485.577093 291.082871 
L 488.039084 290.997142 
L 494.194062 290.654227 
L 497.887048 290.611362 
L 499.733542 290.439905 
L 501.580035 290.39704 
L 505.888519 290.311311 
L 508.35051 290.225583 
L 515.736483 290.139854 
L 518.813972 290.01126 
L 522.506958 289.925532 
L 524.353452 289.711209 
L 528.046438 289.668345 
L 529.892931 289.496887 
L 532.354922 289.411158 
L 539.740895 289.325429 
L 542.818384 289.196836 
L 553.281846 289.153972 
L 554.512841 289.068243 
L 556.359334 289.025378 
L 564.360805 288.93965 
L 565.591801 288.853921 
L 572.362276 288.768192 
L 574.824267 288.682463 
L 582.21024 288.639599 
L 583.441235 288.55387 
L 592.673702 288.511005 
L 594.520195 288.339548 
L 609.907639 288.253819 
L 611.754132 288.210954 
L 628.372571 288.125225 
L 630.834562 288.039497 
L 641.298024 287.953768 
L 642.529019 287.868039 
L 645.606508 287.78231 
L 647.453001 287.610852 
L 650.53049 287.525123 
L 652.992481 287.439394 
L 656.685467 287.353666 
L 658.531961 287.310801 
L 660.993952 287.225072 
L 662.840445 287.182208 
L 665.917934 287.096479 
L 667.148929 287.01075 
L 670.841916 286.925021 
L 673.919404 286.796428 
L 675.1504 286.753564 
L 676.381395 286.667835 
L 678.227889 286.62497 
L 680.68988 286.539241 
L 683.151871 286.453513 
L 691.153341 286.367784 
L 693.615332 286.282055 
L 698.539314 286.196326 
L 702.847799 285.982004 
L 708.387278 285.896275 
L 709.618274 285.810546 
L 720.697233 285.724817 
L 722.543726 285.681953 
L 725.621215 285.639088 
L 728.083206 285.381902 
L 729.929699 285.339037 
L 733.622686 285.253308 
L 740.393161 284.867528 
L 742.855152 284.7818 
L 746.548139 284.610342 
L 747.163636 284.610342 
L 747.163636 284.610342 
" clip-path="url(#pb4f0b73cb0)" style="fill: none; stroke: #ff7f0e; stroke-width: 1.5; stroke-linecap: square"/>
   </g>
   <g id="patch_3">
    <path d="M 108 320.4 
L 108 43.2 
" style="fill: none; stroke: #a9a9a9; stroke-width: 0.8; stroke-linejoin: miter; stroke-linecap: square"/>
   </g>
   <g id="patch_4">
    <path d="M 777.6 320.4 
L 777.6 43.2 
" style="fill: none"/>
   </g>
   <g id="patch_5">
    <path d="M 108 320.4 
L 777.6 320.4 
" style="fill: none; stroke: #a9a9a9; stroke-width: 0.8; stroke-linejoin: miter; stroke-linecap: square"/>
   </g>
   <g id="patch_6">
    <path d="M 108 43.2 
L 777.6 43.2 
" style="fill: none"/>
   </g>
   <g id="text_18">
    <!-- get_subscribe history -->
    <g style="fill: #a9a9a9" transform="translate(378.6075 37.2) scale(0.12 -0.12)">
     <defs>
      <path id="DejaVuSans-67" d="M 2906 1791 
Q 2906 2416 2648 2759 
Q 2391 3103 1925 3103 
Q 1463 3103 1205 2759 
Q 947 2416 947 1791 
Q 947 1169 1205 825 
Q 1463 481 1925 481 
Q 2391 481 2648 825 
Q 2906 1169 2906 1791 
z
M 3481 434 
Q 3481 -459 3084 -895 
Q 2688 -1331 1869 -1331 
Q 1566 -1331 1297 -1286 
Q 1028 -1241 775 -1147 
L 775 -588 
Q 1028 -725 1275 -790 
Q 1522 -856 1778 -856 
Q 2344 -856 2625 -561 
Q 2906 -266 2906 331 
L 2906 616 
Q 2728 306 2450 153 
Q 2172 0 1784 0 
Q 1141 0 747 490 
Q 353 981 353 1791 
Q 353 2603 747 3093 
Q 1141 3584 1784 3584 
Q 2172 3584 2450 3431 
Q 2728 3278 2906 2969 
L 2906 3500 
L 3481 3500 
L 3481 434 
z
" transform="scale(0.015625)"/>
      <path id="DejaVuSans-65" d="M 3597 1894 
L 3597 1613 
L 953 1613 
Q 991 1019 1311 708 
Q 1631 397 2203 397 
Q 2534 397 2845 478 
Q 3156 559 3463 722 
L 3463 178 
Q 3153 47 2828 -22 
Q 2503 -91 2169 -91 
Q 1331 -91 842 396 
Q 353 884 353 1716 
Q 353 2575 817 3079 
Q 1281 3584 2069 3584 
Q 2775 3584 3186 3129 
Q 3597 2675 3597 1894 
z
M 3022 2063 
Q 3016 2534 2758 2815 
Q 2500 3097 2075 3097 
Q 1594 3097 1305 2825 
Q 1016 2553 972 2059 
L 3022 2063 
z
" transform="scale(0.015625)"/>
      <path id="DejaVuSans-74" d="M 1172 4494 
L 1172 3500 
L 2356 3500 
L 2356 3053 
L 1172 3053 
L 1172 1153 
Q 1172 725 1289 603 
Q 1406 481 1766 481 
L 2356 481 
L 2356 0 
L 1766 0 
Q 1100 0 847 248 
Q 594 497 594 1153 
L 594 3053 
L 172 3053 
L 172 3500 
L 594 3500 
L 594 4494 
L 1172 4494 
z
" transform="scale(0.015625)"/>
      <path id="DejaVuSans-5f" d="M 3263 -1063 
L 3263 -1509 
L -63 -1509 
L -63 -1063 
L 3263 -1063 
z
" transform="scale(0.015625)"/>
      <path id="DejaVuSans-73" d="M 2834 3397 
L 2834 2853 
Q 2591 2978 2328 3040 
Q 2066 3103 1784 3103 
Q 1356 3103 1142 2972 
Q 928 2841 928 2578 
Q 928 2378 1081 2264 
Q 1234 2150 1697 2047 
L 1894 2003 
Q 2506 1872 2764 1633 
Q 3022 1394 3022 966 
Q 3022 478 2636 193 
Q 2250 -91 1575 -91 
Q 1294 -91 989 -36 
Q 684 19 347 128 
L 347 722 
Q 666 556 975 473 
Q 1284 391 1588 391 
Q 1994 391 2212 530 
Q 2431 669 2431 922 
Q 2431 1156 2273 1281 
Q 2116 1406 1581 1522 
L 1381 1569 
Q 847 1681 609 1914 
Q 372 2147 372 2553 
Q 372 3047 722 3315 
Q 1072 3584 1716 3584 
Q 2034 3584 2315 3537 
Q 2597 3491 2834 3397 
z
" transform="scale(0.015625)"/>
      <path id="DejaVuSans-75" d="M 544 1381 
L 544 3500 
L 1119 3500 
L 1119 1403 
Q 1119 906 1312 657 
Q 1506 409 1894 409 
Q 2359 409 2629 706 
Q 2900 1003 2900 1516 
L 2900 3500 
L 3475 3500 
L 3475 0 
L 2900 0 
L 2900 538 
Q 2691 219 2414 64 
Q 2138 -91 1772 -91 
Q 1169 -91 856 284 
Q 544 659 544 1381 
z
M 1991 3584 
L 1991 3584 
z
" transform="scale(0.015625)"/>
      <path id="DejaVuSans-62" d="M 3116 1747 
Q 3116 2381 2855 2742 
Q 2594 3103 2138 3103 
Q 1681 3103 1420 2742 
Q 1159 2381 1159 1747 
Q 1159 1113 1420 752 
Q 1681 391 2138 391 
Q 2594 391 2855 752 
Q 3116 1113 3116 1747 
z
M 1159 2969 
Q 1341 3281 1617 3432 
Q 1894 3584 2278 3584 
Q 2916 3584 3314 3078 
Q 3713 2572 3713 1747 
Q 3713 922 3314 415 
Q 2916 -91 2278 -91 
Q 1894 -91 1617 61 
Q 1341 213 1159 525 
L 1159 0 
L 581 0 
L 581 4863 
L 1159 4863 
L 1159 2969 
z
" transform="scale(0.015625)"/>
      <path id="DejaVuSans-63" d="M 3122 3366 
L 3122 2828 
Q 2878 2963 2633 3030 
Q 2388 3097 2138 3097 
Q 1578 3097 1268 2742 
Q 959 2388 959 1747 
Q 959 1106 1268 751 
Q 1578 397 2138 397 
Q 2388 397 2633 464 
Q 2878 531 3122 666 
L 3122 134 
Q 2881 22 2623 -34 
Q 2366 -91 2075 -91 
Q 1284 -91 818 406 
Q 353 903 353 1747 
Q 353 2603 823 3093 
Q 1294 3584 2113 3584 
Q 2378 3584 2631 3529 
Q 2884 3475 3122 3366 
z
" transform="scale(0.015625)"/>
      <path id="DejaVuSans-72" d="M 2631 2963 
Q 2534 3019 2420 3045 
Q 2306 3072 2169 3072 
Q 1681 3072 1420 2755 
Q 1159 2438 1159 1844 
L 1159 0 
L 581 0 
L 581 3500 
L 1159 3500 
L 1159 2956 
Q 1341 3275 1631 3429 
Q 1922 3584 2338 3584 
Q 2397 3584 2469 3576 
Q 2541 3569 2628 3553 
L 2631 2963 
z
" transform="scale(0.015625)"/>
      <path id="DejaVuSans-69" d="M 603 3500 
L 1178 3500 
L 1178 0 
L 603 0 
L 603 3500 
z
M 603 4863 
L 1178 4863 
L 1178 4134 
L 603 4134 
L 603 4863 
z
" transform="scale(0.015625)"/>
      <path id="DejaVuSans-20" transform="scale(0.015625)"/>
      <path id="DejaVuSans-68" d="M 3513 2113 
L 3513 0 
L 2938 0 
L 2938 2094 
Q 2938 2591 2744 2837 
Q 2550 3084 2163 3084 
Q 1697 3084 1428 2787 
Q 1159 2491 1159 1978 
L 1159 0 
L 581 0 
L 581 4863 
L 1159 4863 
L 1159 2956 
Q 1366 3272 1645 3428 
Q 1925 3584 2291 3584 
Q 2894 3584 3203 3211 
Q 3513 2838 3513 2113 
z
" transform="scale(0.015625)"/>
      <path id="DejaVuSans-6f" d="M 1959 3097 
Q 1497 3097 1228 2736 
Q 959 2375 959 1747 
Q 959 1119 1226 758 
Q 1494 397 1959 397 
Q 2419 397 2687 759 
Q 2956 1122 2956 1747 
Q 2956 2369 2687 2733 
Q 2419 3097 1959 3097 
z
M 1959 3584 
Q 2709 3584 3137 3096 
Q 3566 2609 3566 1747 
Q 3566 888 3137 398 
Q 2709 -91 1959 -91 
Q 1206 -91 779 398 
Q 353 888 353 1747 
Q 353 2609 779 3096 
Q 1206 3584 1959 3584 
z
" transform="scale(0.015625)"/>
      <path id="DejaVuSans-79" d="M 2059 -325 
Q 1816 -950 1584 -1140 
Q 1353 -1331 966 -1331 
L 506 -1331 
L 506 -850 
L 844 -850 
Q 1081 -850 1212 -737 
Q 1344 -625 1503 -206 
L 1606 56 
L 191 3500 
L 800 3500 
L 1894 763 
L 2988 3500 
L 3597 3500 
L 2059 -325 
z
" transform="scale(0.015625)"/>
     </defs>
     <use xlink:href="#DejaVuSans-67"/>
     <use xlink:href="#DejaVuSans-65" x="63.476562"/>
     <use xlink:href="#DejaVuSans-74" x="125"/>
     <use xlink:href="#DejaVuSans-5f" x="164.208984"/>
     <use xlink:href="#DejaVuSans-73" x="214.208984"/>
     <use xlink:href="#DejaVuSans-75" x="266.308594"/>
     <use xlink:href="#DejaVuSans-62" x="329.6875"/>
     <use xlink:href="#DejaVuSans-73" x="393.164062"/>
     <use xlink:href="#DejaVuSans-63" x="445.263672"/>
     <use xlink:href="#DejaVuSans-72" x="500.244141"/>
     <use xlink:href="#DejaVuSans-69" x="541.357422"/>
     <use xlink:href="#DejaVuSans-62" x="569.140625"/>
     <use xlink:href="#DejaVuSans-65" x="632.617188"/>
     <use xlink:href="#DejaVuSans-20" x="694.140625"/>
     <use xlink:href="#DejaVuSans-68" x="725.927734"/>
     <use xlink:href="#DejaVuSans-69" x="789.306641"/>
     <use xlink:href="#DejaVuSans-73" x="817.089844"/>
     <use xlink:href="#DejaVuSans-74" x="869.189453"/>
     <use xlink:href="#DejaVuSans-6f" x="908.398438"/>
     <use xlink:href="#DejaVuSans-72" x="969.580078"/>
     <use xlink:href="#DejaVuSans-79" x="1010.693359"/>
    </g>
   </g>
   <g id="legend_1">
    <g id="line2d_37">
     <path d="M 815.08 328.498438 
L 825.08 328.498438 
L 835.08 328.498438 
" style="fill: none; stroke: #1f77b4; stroke-width: 1.5; stroke-linecap: square"/>
    </g>
    <g id="text_19">
     <!-- star -->
     <g style="fill: #a9a9a9" transform="translate(843.08 331.998438) scale(0.1 -0.1)">
      <defs>
       <path id="DejaVuSans-61" d="M 2194 1759 
Q 1497 1759 1228 1600 
Q 959 1441 959 1056 
Q 959 750 1161 570 
Q 1363 391 1709 391 
Q 2188 391 2477 730 
Q 2766 1069 2766 1631 
L 2766 1759 
L 2194 1759 
z
M 3341 1997 
L 3341 0 
L 2766 0 
L 2766 531 
Q 2569 213 2275 61 
Q 1981 -91 1556 -91 
Q 1019 -91 701 211 
Q 384 513 384 1019 
Q 384 1609 779 1909 
Q 1175 2209 1959 2209 
L 2766 2209 
L 2766 2266 
Q 2766 2663 2505 2880 
Q 2244 3097 1772 3097 
Q 1472 3097 1187 3025 
Q 903 2953 641 2809 
L 641 3341 
Q 956 3463 1253 3523 
Q 1550 3584 1831 3584 
Q 2591 3584 2966 3190 
Q 3341 2797 3341 1997 
z
" transform="scale(0.015625)"/>
      </defs>
      <use xlink:href="#DejaVuSans-73"/>
      <use xlink:href="#DejaVuSans-74" x="52.099609"/>
      <use xlink:href="#DejaVuSans-61" x="91.308594"/>
      <use xlink:href="#DejaVuSans-72" x="152.587891"/>
     </g>
    </g>
    <g id="line2d_38">
     <path d="M 815.08 343.176562 
L 825.08 343.176562 
L 835.08 343.176562 
" style="fill: none; stroke: #ff7f0e; stroke-width: 1.5; stroke-linecap: square"/>
    </g>
    <g id="text_20">
     <!-- fork -->
     <g style="fill: #a9a9a9" transform="translate(843.08 346.676562) scale(0.1 -0.1)">
      <defs>
       <path id="DejaVuSans-66" d="M 2375 4863 
L 2375 4384 
L 1825 4384 
Q 1516 4384 1395 4259 
Q 1275 4134 1275 3809 
L 1275 3500 
L 2222 3500 
L 2222 3053 
L 1275 3053 
L 1275 0 
L 697 0 
L 697 3053 
L 147 3053 
L 147 3500 
L 697 3500 
L 697 3744 
Q 697 4328 969 4595 
Q 1241 4863 1831 4863 
L 2375 4863 
z
" transform="scale(0.015625)"/>
       <path id="DejaVuSans-6b" d="M 581 4863 
L 1159 4863 
L 1159 1991 
L 2875 3500 
L 3609 3500 
L 1753 1863 
L 3688 0 
L 2938 0 
L 1159 1709 
L 1159 0 
L 581 0 
L 581 4863 
z
" transform="scale(0.015625)"/>
      </defs>
      <use xlink:href="#DejaVuSans-66"/>
      <use xlink:href="#DejaVuSans-6f" x="35.205078"/>
      <use xlink:href="#DejaVuSans-72" x="96.386719"/>
      <use xlink:href="#DejaVuSans-6b" x="137.5"/>
     </g>
    </g>
   </g>
  </g>
 </g>
 <defs>
  <clipPath id="pb4f0b73cb0">
   <rect x="108" y="43.2" width="669.6" height="277.2"/>
  </clipPath>
 </defs>
</svg>
